<svg xmlns="http://www.w3.org/2000/svg" viewBox="150 140 1620 670">
  <g>
    <path
      d="M944.511,462.372V587.049H896.558V469.165c0-27.572-13.189-44.757-35.966-44.757-23.577,0-39.958,19.183-39.958,46.755V587.049H773.078V469.165c0-27.572-13.185-44.757-35.962-44.757-22.378,0-39.162,19.581-39.162,46.755V587.049H650.4v-201.4h47.551v28.77c8.39-19.581,28.771-32.766,54.346-32.766,27.572,0,46.353,11.589,56.343,35.166,11.589-23.577,33.57-35.166,65.934-35.166C918.937,381.652,944.511,412.42,944.511,462.372Zm193.422-76.724h47.953v201.4h-47.953V557.876c-6.794,19.581-31.167,33.567-64.335,33.567q-42.558,0-71.928-29.969c-19.183-20.381-28.771-45.155-28.771-75.128s9.588-54.743,28.771-74.726c19.581-20.377,43.556-30.366,71.928-30.366,33.168,0,57.541,13.985,64.335,33.566Zm3.6,100.7c0-17.579-5.993-32.368-17.981-43.953-11.589-11.59-26.374-17.583-43.559-17.583s-31.167,5.993-42.756,17.583c-11.187,11.585-16.783,26.374-16.783,43.953s5.6,32.369,16.783,43.958c11.589,11.589,25.575,17.583,42.756,17.583s31.97-5.994,43.559-17.583C1135.537,518.715,1141.53,503.929,1141.53,486.346Zm84.135,113.49c0,21.177-7.594,29.571-25.575,29.571-2.8,0-7.192-.4-13.185-.8v42.357c4.393.8,11.187,1.2,19.979,1.2,44.355,0,66.734-22.776,66.734-67.932V385.648h-47.953Zm23.978-294.108c-15.987,0-28.774,12.385-28.774,28.372s12.787,28.369,28.774,28.369a28.371,28.371,0,0,0,0-56.741Zm239.674,104.694c21.177,20.381,31.966,45.956,31.966,75.924s-10.789,55.547-31.966,75.928-47.154,30.769-77.926,30.769-56.741-10.392-77.922-30.769-31.966-45.955-31.966-75.928,10.789-55.543,31.966-75.924,47.154-30.768,77.922-30.768S1468.136,390.041,1489.317,410.422Zm-15.585,75.924c0-17.981-5.994-32.766-17.985-44.753-11.988-12.39-26.773-18.383-44.356-18.383-17.981,0-32.766,5.993-44.754,18.383-11.589,11.987-17.583,26.772-17.583,44.753s5.994,32.77,17.583,45.156c11.988,11.987,26.773,17.985,44.754,17.985q26.374,0,44.356-17.985C1467.738,519.116,1473.732,504.331,1473.732,486.346Zm184.122-104.694c-28.373,0-50.349,12.787-59.941,33.964V385.648h-47.551v201.4h47.551v-105.9c0-33.169,21.177-53.948,54.345-53.948a102.566,102.566,0,0,1,19.979,2V382.85A74.364,74.364,0,0,0,1657.854,381.652ZM580.777,569.25l33.909,30.087c-40.644,47.027-92.892,70.829-156.173,70.829-58.637,0-108.567-19.737-149.788-59.8C268.082,570.31,247.763,519.8,247.763,460s20.319-109.726,60.962-149.786c41.221-40.059,91.151-60.38,149.788-60.38,62.119,0,113.789,22.643,154.432,68.507l-33.864,30.134c-16.261-19.069-35.272-32.933-56.978-41.783V486.346H496.536V621.1Q546.954,610.231,580.777,569.25Zm-237.74,9.1A150.247,150.247,0,0,0,396.5,614.04V486.346H370.929V319.387a159.623,159.623,0,0,0-27.892,22.829Q297.187,389.16,297.186,460C297.186,507.229,312.47,547.06,343.037,578.354Zm115.476,46.66a187.178,187.178,0,0,0,27.28-1.94V486.346H474.548V295.666c-5.236-.426-10.567-.677-16.035-.677a177.387,177.387,0,0,0-40.029,4.4V486.346H407.239v131.4A175.161,175.161,0,0,0,458.513,625.014Z"
      fill="#fff" />
  </g>
</svg>
