<svg xmlns="http://www.w3.org/2000/svg" viewBox="0 0 1200 560">
  <g>
    <path d="M532.3,205.9c4.4,5.9,6.6,13.4,6.6,22.7c0,9.2-2.3,17.3-6.9,24.2c-4.6,6.9-11.2,12.3-19.7,16.2c-8.5,3.9-18.6,5.8-30.1,5.8
        c-11.6,0-21.9-2.1-30.8-6.2c-8.9-4.1-15.9-10.2-21-18.1c-5.1-8-7.6-17.7-7.6-29.1v-5.5h23.5v5.5c0,10.9,3.3,19,9.8,24.4
        c6.5,5.4,15.2,8.1,26.1,8.1c11,0,19.3-2.3,24.9-6.9c5.6-4.6,8.4-10.6,8.4-17.9c0-4.8-1.3-8.8-4-11.9c-2.6-3.1-6.4-5.5-11.2-7.4
        c-4.8-1.8-10.6-3.6-17.4-5.2l-8.1-2c-9.8-2.3-18.4-5.2-25.6-8.7c-7.3-3.4-12.9-8-16.8-13.8s-5.9-13.1-5.9-22
        c0-9.1,2.2-16.9,6.7-23.3c4.5-6.5,10.7-11.4,18.6-15s17.2-5.3,27.9-5.3c10.7,0,20.3,1.8,28.7,5.5c8.4,3.7,15.1,9.1,19.9,16.3
        c4.8,7.2,7.3,16.2,7.3,27.1v7.9h-23.5v-7.9c0-6.6-1.4-12-4.1-16.1c-2.7-4.1-6.5-7.1-11.3-9c-4.8-1.9-10.5-2.9-16.9-2.9
        c-9.4,0-16.7,1.9-21.9,5.8c-5.2,3.9-7.8,9.3-7.8,16.2c0,4.7,1.1,8.5,3.4,11.6c2.3,3,5.6,5.5,10,7.4c4.4,1.9,9.9,3.6,16.5,5.1l8.1,2
        c10,2.2,18.8,5,26.4,8.5C521.9,195.4,527.9,200.1,532.3,205.9z M637.7,268.1c-8.5,4.5-18.2,6.7-29,6.7c-10.9,0-20.5-2.2-28.9-6.7
        c-8.4-4.5-15.1-10.9-19.9-19.2c-4.8-8.4-7.3-18.3-7.3-29.7v-3.3c0-11.4,2.4-21.3,7.3-29.6c4.8-8.3,11.5-14.7,19.9-19.2
        c8.4-4.5,18.1-6.8,28.9-6.8c10.9,0,20.5,2.3,29,6.8c8.5,4.5,15.2,11,20,19.2c4.8,8.3,7.3,18.2,7.3,29.6v3.3
        c0,11.4-2.4,21.3-7.3,29.7C652.9,257.2,646.2,263.6,637.7,268.1z M642.3,216.5c0-11.3-3.1-20.1-9.2-26.5
        c-6.2-6.4-14.3-9.6-24.4-9.6c-9.8,0-17.9,3.2-24.1,9.6c-6.2,6.4-9.4,15.2-9.4,26.5v2c0,11.3,3.1,20.1,9.4,26.5
        c6.2,6.4,14.3,9.6,24.1,9.6c10,0,18.1-3.2,24.3-9.6c6.2-6.4,9.4-15.2,9.4-26.5V216.5z M699.5,268.2c6.5,3.7,13.8,5.5,22,5.5
        c10.3,0,18-1.9,23.3-5.8s8.9-8,11-12.4h3.5v16.3h22.2V163.2h-22.7V218c0,11.7-2.8,20.7-8.5,27c-5.6,6.2-13.1,9.4-22.3,9.4
        c-8.4,0-14.9-2.2-19.6-6.7c-4.7-4.5-7-11.4-7-20.8v-63.6h-22.7v65.1c0,9.4,1.8,17.5,5.5,24.2C688,259.3,693,264.5,699.5,268.2z
         M822.3,216.9c0-11.7,2.8-20.7,8.5-26.8c5.6-6.2,13.2-9.2,22.5-9.2c8.2,0,14.7,2.2,19.4,6.7c4.7,4.5,7,11.4,7,20.8v63.4h22.7v-65.1
        c0-9.4-1.8-17.4-5.5-24.1c-3.7-6.7-8.7-11.8-15.1-15.5c-6.4-3.7-13.7-5.5-21.9-5.5c-10.4,0-18.3,1.9-23.5,5.7
        c-5.3,3.8-8.9,7.9-11,12.3h-3.5v-16.3h-22.2v108.5h22.7V216.9z M923.3,249.2c-4.6-8.3-6.9-18.3-6.9-30v-3.3
        c0-11.6,2.3-21.6,6.8-29.9c4.5-8.4,10.6-14.7,18.3-19.1c7.6-4.4,16-6.6,25.1-6.6c7,0,12.9,0.9,17.7,2.6c4.8,1.8,8.7,4,11.8,6.7
        c3.1,2.7,5.4,5.5,7,8.5h3.5v-60.3h22.7v154H1007v-15.4h-3.5c-2.8,4.7-7,8.9-12.6,12.8c-5.6,3.8-13.8,5.7-24.3,5.7
        c-8.9,0-17.2-2.2-24.9-6.6C934.1,263.8,928,257.4,923.3,249.2z M939.3,218.5c0,11.7,3.2,20.8,9.6,27.1c6.4,6.3,14.4,9.5,24.1,9.5
        c9.8,0,17.9-3.2,24.3-9.5c6.4-6.3,9.6-15.3,9.6-27.1v-2c0-11.6-3.2-20.5-9.5-26.8c-6.3-6.3-14.4-9.5-24.4-9.5
        c-9.7,0-17.7,3.2-24.1,9.5c-6.4,6.3-9.6,15.3-9.6,26.8V218.5z M514.3,366.9c-7.6-3.4-16.4-6.3-26.4-8.5l-8.1-2
        c-6.6-1.5-12.1-3.2-16.5-5.1c-4.4-1.9-7.7-4.4-10-7.4c-2.3-3-3.4-6.9-3.4-11.6c0-6.9,2.6-12.3,7.8-16.2c5.2-3.9,12.5-5.8,21.9-5.8
        c6.5,0,12.1,1,16.9,2.9c4.8,1.9,8.6,4.9,11.3,9c2.7,4.1,4.1,9.5,4.1,16.1v7.9h23.5v-7.9c0-10.9-2.4-19.9-7.3-27.1
        c-4.8-7.2-11.5-12.6-19.9-16.3c-8.4-3.7-18-5.5-28.7-5.5c-10.7,0-20,1.8-27.9,5.3s-14.1,8.5-18.6,15c-4.5,6.5-6.7,14.2-6.7,23.3
        c0,8.9,2,16.3,5.9,22c4,5.7,9.6,10.3,16.8,13.8c7.3,3.4,15.8,6.3,25.6,8.7l8.1,2c6.7,1.6,12.5,3.3,17.4,5.2
        c4.8,1.8,8.6,4.3,11.2,7.4c2.6,3.1,4,7,4,11.9c0,7.3-2.8,13.3-8.4,17.9c-5.6,4.6-13.9,6.9-24.9,6.9c-10.9,0-19.5-2.7-26.1-8.1
        c-6.5-5.4-9.8-13.6-9.8-24.4v-5.5h-23.5v5.5c0,11.4,2.5,21.2,7.6,29.1c5.1,8,12.1,14,21,18.2c8.9,4.1,19.2,6.2,30.8,6.2
        c11.6,0,21.6-1.9,30.1-5.8c8.5-3.9,15.1-9.3,19.7-16.2c4.6-6.9,6.9-15,6.9-24.2s-2.2-16.8-6.6-22.7
        C527.9,375.1,521.9,370.4,514.3,366.9z M597.4,302.4h-22.7v35.9h-29.9v19.1h29.9v67.5c0,6.6,1.9,11.9,5.8,15.8
        c3.9,4,9.1,5.9,15.7,5.9h29.9v-19.1h-22.7c-4.1,0-6.2-2.2-6.2-6.6v-63.6h32.3v-19.1h-32.3V302.4z M757.4,427.8h9.2v18.9h-19.1
        c-5.1,0-9.3-1.5-12.5-4.4c-3.2-2.9-4.8-6.9-4.8-11.9v-1.5h-3.3c-2.8,5.7-7.1,10.6-13,14.7c-5.9,4.1-14.3,6.2-25.3,6.2
        c-9.1,0-17.5-2.2-25.1-6.6c-7.6-4.4-13.7-10.7-18.3-19c-4.5-8.3-6.8-18.3-6.8-30v-3.3c0-11.7,2.3-21.7,6.9-30
        c4.6-8.3,10.7-14.6,18.4-19c7.6-4.4,15.9-6.6,24.9-6.6c10.6,0,18.7,1.9,24.3,5.7c5.6,3.8,9.9,8.1,12.6,13h3.5v-15.6h22.2v82.9
        C751.2,425.6,753.2,427.8,757.4,427.8z M728.8,391.5c0-11.6-3.2-20.5-9.6-26.8c-6.4-6.3-14.5-9.5-24.3-9.5
        c-9.7,0-17.7,3.2-24.1,9.5c-6.4,6.3-9.6,15.3-9.6,26.8v2c0,11.7,3.2,20.8,9.6,27.1c6.4,6.3,14.4,9.5,24.1,9.5
        c10,0,18.1-3.2,24.4-9.5c6.3-6.3,9.5-15.3,9.5-27.1V391.5z M848.4,422.2c-5,4.9-12.2,7.4-21.8,7.4c-6.3,0-12-1.4-17-4.2
        c-5.1-2.8-9.1-6.9-12-12.3c-2.9-5.4-4.4-12-4.4-19.6v-2c0-7.6,1.5-14.1,4.4-19.5c2.9-5.4,6.9-9.5,12-12.3c5.1-2.9,10.7-4.3,17-4.3
        c6.5,0,11.8,1.2,16.1,3.5c4.3,2.3,7.6,5.5,9.9,9.5c2.3,4,3.9,8.4,4.6,13.2l22-4.6c-1.3-7.6-4.2-14.6-8.7-20.9
        c-4.5-6.3-10.4-11.4-17.7-15.2c-7.3-3.8-16.2-5.7-26.6-5.7c-10.4,0-19.8,2.2-28.3,6.7c-8.4,4.5-15.1,10.9-20,19.1
        c-4.9,8.3-7.4,18.3-7.4,30v2.9c0,11.7,2.5,21.8,7.4,30.1c4.9,8.4,11.6,14.7,20,19.1c8.4,4.4,17.9,6.6,28.3,6.6
        c10.4,0,19.3-1.9,26.6-5.6c7.3-3.7,13.2-8.8,17.7-15.1c4.5-6.3,7.6-13.2,9.3-20.7l-22-5.1C856.6,411,853.4,417.3,848.4,422.2z
         M991.9,338.2h-30.1l-42.7,42.2h-3.5v-87.8h-22.7v154h22.7v-45.1h3.5l44.7,45.1h29.9l-56.5-55.9L991.9,338.2z M1081.5,397.9
        c-3.7-4.4-8.8-7.8-15.3-10.1c-6.5-2.3-13.6-4.2-21.3-5.5l-7.7-1.3c-5.9-1-10.5-2.6-14-4.6c-3.4-2.1-5.2-5.3-5.2-9.7
        c0-4.1,1.8-7.3,5.3-9.6c3.5-2.3,8.4-3.4,14.5-3.4c6.3,0,11.6,1.4,15.8,4.1c4.3,2.7,7,7.4,8.4,14l21.1-5.9
        c-2.3-9.4-7.4-16.8-15.3-22.3c-7.8-5.5-17.9-8.2-30-8.2c-12.6,0-22.7,2.8-30.4,8.5c-7.6,5.6-11.4,13.6-11.4,23.9
        c0,6.9,1.8,12.5,5.3,16.9c3.5,4.4,8.3,7.8,14.3,10.3c6,2.5,12.7,4.4,20,5.7l7.5,1.3c7.2,1.3,12.6,3,16.3,5.1
        c3.7,2.1,5.5,5.3,5.5,9.7c0,4.4-1.9,8-5.8,10.8c-3.9,2.8-9.4,4.2-16.6,4.2c-4.8,0-9.3-0.7-13.5-2.2c-4.2-1.5-7.7-4-10.5-7.5
        c-2.8-3.5-4.8-8.3-5.9-14.3l-21.1,5.1c2.1,12.5,7.6,21.8,16.7,27.9c9.1,6.2,20.5,9.2,34.3,9.2c13.6,0,24.5-3,32.6-9
        c8.1-6,12.1-14.4,12.1-25.3C1087.1,408.1,1085.3,402.3,1081.5,397.9z M112.4,151v37.9l82.2,39.7l151.2-73v-37.9l-151.2,73
        L112.4,151z M112.4,369.1V407l82.2,39.7l151.2-73v-37.9l-151.2,73L112.4,369.1z M112.4,226.7v37.9l151.2,73l82.2-39.7v-37.9
        l-82.2,39.7L112.4,226.7z"/>
  </g>
</svg>
