<svg width="68" height="68" viewBox="0 0 68 68" fill="none" xmlns="http://www.w3.org/2000/svg">
  <circle cx="34" cy="34" r="34" fill="#191E22"/>
  <path d="M34 5C35.7057 5 37.3769 5.14725 39.0018 5.42974C39.0593 7.01325 39.6925 8.57975 40.9013 9.78858C43.423 12.3103 47.5013 12.3269 50.0434 9.83828C53.0744 11.8549 55.7042 14.4266 57.7878 17.4082C56.7889 18.5511 56.1838 20.0468 56.1838 21.6838C56.1838 25.1838 58.95 28.0377 62.4155 28.1784C62.7988 30.0591 63 32.0061 63 34C63 35.7141 62.8513 37.3935 62.566 39.026C61.111 39.1621 59.6931 39.7873 58.579 40.9014C56.1323 43.348 56.0439 47.26 58.3138 49.8125C56.3197 52.8723 53.7638 55.5325 50.7922 57.6465C49.6725 56.7322 48.2423 56.1838 46.684 56.1838C43.2104 56.1838 40.3732 58.9085 40.1931 62.3372C38.1976 62.7713 36.1255 63 34 63C32.4162 63 30.8621 62.873 29.3472 62.6287C29.2233 61.1518 28.5964 59.7091 27.4663 58.5789C24.9705 56.0832 20.9502 56.0413 18.4033 58.453C15.3335 56.491 12.6577 53.9667 10.5212 51.0255C11.5549 49.8745 12.1838 48.3526 12.1838 46.6838C12.1838 43.094 9.2736 40.1838 5.68375 40.1838L5.66075 40.1839C5.22797 38.1913 5 36.1223 5 34C5 32.4234 5.12581 30.8761 5.36795 29.3678C6.97247 29.3247 8.56408 28.6909 9.78864 27.4663C12.3271 24.9279 12.3271 20.8124 9.78864 18.2739C9.75659 18.2419 9.72429 18.2102 9.69174 18.179C11.6791 15.1317 14.224 12.4811 17.1817 10.3721C18.3498 11.4941 19.9364 12.1838 21.684 12.1838C25.2738 12.1838 28.184 9.27369 28.184 5.68384C28.184 5.65034 28.1837 5.61689 28.1832 5.58351C30.0625 5.20089 32.0078 5 34 5Z" fill="#43414F"/>
  <circle cx="34" cy="34" r="18" fill="#FFFAE8"/>
  <rect x="32" y="5" width="4" height="12" fill="#FFFAE8"/>
</svg>
