<svg width="250" height="423" viewBox="0 0 250 423" fill="none" xmlns="http://www.w3.org/2000/svg">
  <g filter="url(#filter0_i_3100_1019)">
    <rect x="10" width="230" height="423" rx="19" fill="#247882" />
  </g>
  <g filter="url(#filter1_i_3100_1019)">
    <rect x="10" y="145" width="230" height="278" rx="19" fill="#247882" />
  </g>
  <path d="M46.7314 171.65C46.7314 172.227 46.6257 172.736 46.4141 173.179C46.2025 173.618 45.8997 173.986 45.5059 174.282C45.112 174.578 44.6335 174.803 44.0703 174.956C43.5104 175.106 42.8805 175.181 42.1807 175.181C41.4808 175.181 40.8477 175.106 40.2812 174.956C39.7181 174.803 39.238 174.578 38.8408 174.282C38.4437 173.986 38.1377 173.618 37.9229 173.179C37.708 172.736 37.6006 172.227 37.6006 171.65C37.6006 171.074 37.708 170.566 37.9229 170.127C38.1377 169.684 38.4437 169.315 38.8408 169.019C39.238 168.722 39.7181 168.499 40.2812 168.35C40.8477 168.197 41.4808 168.12 42.1807 168.12C42.8805 168.12 43.5104 168.197 44.0703 168.35C44.6335 168.499 45.112 168.722 45.5059 169.019C45.8997 169.315 46.2025 169.684 46.4141 170.127C46.6257 170.566 46.7314 171.074 46.7314 171.65ZM44.9004 171.65C44.9004 171.4 44.8597 171.151 44.7783 170.903C44.7002 170.653 44.5586 170.428 44.3535 170.229C44.1517 170.031 43.875 169.87 43.5234 169.746C43.1719 169.622 42.7243 169.561 42.1807 169.561C41.8161 169.561 41.4954 169.59 41.2188 169.648C40.9421 169.704 40.7028 169.782 40.501 169.883C40.2992 169.984 40.1299 170.103 39.9932 170.239C39.8564 170.373 39.7474 170.518 39.666 170.674C39.5846 170.827 39.526 170.988 39.4902 171.157C39.4577 171.323 39.4414 171.488 39.4414 171.65C39.4414 171.816 39.4577 171.984 39.4902 172.153C39.526 172.323 39.5846 172.485 39.666 172.642C39.7474 172.795 39.8564 172.938 39.9932 173.071C40.1299 173.205 40.2992 173.322 40.501 173.423C40.7028 173.521 40.9421 173.599 41.2188 173.657C41.4954 173.713 41.8161 173.74 42.1807 173.74C42.7243 173.74 43.1719 173.678 43.5234 173.555C43.875 173.431 44.1517 173.27 44.3535 173.071C44.5586 172.873 44.7002 172.65 44.7783 172.402C44.8597 172.152 44.9004 171.901 44.9004 171.65ZM56.3018 172.739C56.3018 173.075 56.2188 173.39 56.0527 173.687C55.8867 173.983 55.6377 174.242 55.3057 174.463C54.9736 174.684 54.5586 174.86 54.0605 174.99C53.5658 175.117 52.9863 175.181 52.3223 175.181C51.6582 175.181 51.0755 175.117 50.5742 174.99C50.0762 174.86 49.6611 174.684 49.3291 174.463C48.9971 174.242 48.748 173.983 48.582 173.687C48.416 173.39 48.333 173.075 48.333 172.739V168.291H50.1396V172.09C50.1396 172.314 50.1673 172.528 50.2227 172.729C50.2812 172.928 50.3887 173.102 50.5449 173.252C50.7044 173.402 50.9258 173.521 51.209 173.608C51.4954 173.696 51.8665 173.74 52.3223 173.74C52.7747 173.74 53.1426 173.696 53.4258 173.608C53.709 173.521 53.9287 173.402 54.085 173.252C54.2445 173.102 54.3519 172.928 54.4072 172.729C54.4626 172.528 54.4902 172.314 54.4902 172.09V168.291H56.3018V172.739ZM62.1123 169.751V175H60.3008V169.751H57.4541V168.291H64.9639V169.751H62.1123ZM73.7041 170.581C73.7041 170.916 73.6553 171.226 73.5576 171.509C73.46 171.789 73.3021 172.031 73.084 172.236C72.8691 172.438 72.5892 172.596 72.2441 172.71C71.8991 172.824 71.4792 172.881 70.9844 172.881H67.9766V175H66.165V168.291H70.9844C71.4792 168.291 71.8991 168.348 72.2441 168.462C72.5892 168.573 72.8691 168.73 73.084 168.936C73.3021 169.137 73.46 169.378 73.5576 169.658C73.6553 169.938 73.7041 170.246 73.7041 170.581ZM71.873 170.61C71.873 170.454 71.8503 170.321 71.8047 170.21C71.7624 170.096 71.6908 170.003 71.5898 169.932C71.4889 169.86 71.3571 169.808 71.1943 169.775C71.0316 169.74 70.8314 169.722 70.5938 169.722H67.9766V171.45H70.5938C70.8314 171.45 71.0316 171.437 71.1943 171.411C71.3571 171.382 71.4889 171.335 71.5898 171.27C71.6908 171.201 71.7624 171.113 71.8047 171.006C71.8503 170.898 71.873 170.767 71.873 170.61ZM83.1279 172.739C83.1279 173.075 83.0449 173.39 82.8789 173.687C82.7129 173.983 82.4639 174.242 82.1318 174.463C81.7998 174.684 81.3848 174.86 80.8867 174.99C80.3919 175.117 79.8125 175.181 79.1484 175.181C78.4844 175.181 77.9017 175.117 77.4004 174.99C76.9023 174.86 76.4873 174.684 76.1553 174.463C75.8232 174.242 75.5742 173.983 75.4082 173.687C75.2422 173.39 75.1592 173.075 75.1592 172.739V168.291H76.9658V172.09C76.9658 172.314 76.9935 172.528 77.0488 172.729C77.1074 172.928 77.2148 173.102 77.3711 173.252C77.5306 173.402 77.752 173.521 78.0352 173.608C78.3216 173.696 78.6927 173.74 79.1484 173.74C79.6009 173.74 79.9688 173.696 80.252 173.608C80.5352 173.521 80.7549 173.402 80.9111 173.252C81.0706 173.102 81.1781 172.928 81.2334 172.729C81.2887 172.528 81.3164 172.314 81.3164 172.09V168.291H83.1279V172.739ZM88.9385 169.751V175H87.127V169.751H84.2803V168.291H91.79V169.751H88.9385Z" fill="#FFFAE8" />
  <path d="M171.907 175V168.291H173.719V175H171.907ZM182.161 175L177.635 170.391V175H175.823V168.291H177.791L182.322 172.92V168.291H184.124V175H182.161ZM193.763 170.581C193.763 170.916 193.714 171.226 193.616 171.509C193.519 171.789 193.361 172.031 193.143 172.236C192.928 172.438 192.648 172.596 192.303 172.71C191.958 172.824 191.538 172.881 191.043 172.881H188.035V175H186.224V168.291H191.043C191.538 168.291 191.958 168.348 192.303 168.462C192.648 168.573 192.928 168.73 193.143 168.936C193.361 169.137 193.519 169.378 193.616 169.658C193.714 169.938 193.763 170.246 193.763 170.581ZM191.932 170.61C191.932 170.454 191.909 170.321 191.863 170.21C191.821 170.096 191.749 170.003 191.648 169.932C191.548 169.86 191.416 169.808 191.253 169.775C191.09 169.74 190.89 169.722 190.652 169.722H188.035V171.45H190.652C190.89 171.45 191.09 171.437 191.253 171.411C191.416 171.382 191.548 171.335 191.648 171.27C191.749 171.201 191.821 171.113 191.863 171.006C191.909 170.898 191.932 170.767 191.932 170.61ZM203.187 172.739C203.187 173.075 203.104 173.39 202.938 173.687C202.771 173.983 202.522 174.242 202.19 174.463C201.858 174.684 201.443 174.86 200.945 174.99C200.451 175.117 199.871 175.181 199.207 175.181C198.543 175.181 197.96 175.117 197.459 174.99C196.961 174.86 196.546 174.684 196.214 174.463C195.882 174.242 195.633 173.983 195.467 173.687C195.301 173.39 195.218 173.075 195.218 172.739V168.291H197.024V172.09C197.024 172.314 197.052 172.528 197.107 172.729C197.166 172.928 197.273 173.102 197.43 173.252C197.589 173.402 197.811 173.521 198.094 173.608C198.38 173.696 198.751 173.74 199.207 173.74C199.66 173.74 200.027 173.696 200.311 173.608C200.594 173.521 200.813 173.402 200.97 173.252C201.129 173.102 201.237 172.928 201.292 172.729C201.347 172.528 201.375 172.314 201.375 172.09V168.291H203.187V172.739ZM208.997 169.751V175H207.186V169.751H204.339V168.291H211.849V169.751H208.997Z" fill="#FFFAE8" />
  <path d="M26.1691 176.362L23.7151 173.927C23.6801 173.892 23.6562 173.847 23.6465 173.799C23.6368 173.75 23.6417 173.7 23.6605 173.654C23.6793 173.609 23.7113 173.569 23.7523 173.542C23.7934 173.514 23.8417 173.5 23.8911 173.5L30.3321 173.5C30.6636 173.5 30.9815 173.368 31.216 173.133C31.4504 172.899 31.5821 172.581 31.5821 172.25C31.5821 171.918 31.4504 171.6 31.216 171.366C30.9815 171.131 30.6636 171 30.3321 171L23.8901 171C23.8404 171 23.7919 170.985 23.7507 170.957C23.7094 170.93 23.6773 170.891 23.6584 170.845C23.6395 170.799 23.6347 170.748 23.6447 170.7C23.6546 170.651 23.6787 170.606 23.7141 170.572L26.1681 168.137C26.2846 168.021 26.3773 167.884 26.4408 167.733C26.5043 167.581 26.5374 167.419 26.5382 167.255C26.539 167.091 26.5074 166.928 26.4454 166.777C26.3834 166.625 26.292 166.487 26.1766 166.37C26.0611 166.253 25.9239 166.161 25.7726 166.097C25.6214 166.034 25.4591 166.001 25.2951 166C25.1311 165.999 24.9685 166.031 24.8166 166.093C24.6648 166.155 24.5266 166.246 24.4101 166.362L19.3691 171.362C19.2521 171.478 19.1593 171.616 19.096 171.768C19.0326 171.92 19 172.083 19 172.248C19 172.412 19.0326 172.575 19.096 172.727C19.1593 172.88 19.2521 173.018 19.3691 173.134V173.134L24.4101 178.134C24.5251 178.255 24.6633 178.352 24.8166 178.419C24.9698 178.486 25.135 178.522 25.3023 178.524C25.4695 178.526 25.6354 178.494 25.7902 178.431C25.945 178.367 26.0855 178.273 26.2033 178.155C26.3212 178.036 26.414 177.895 26.4762 177.739C26.5385 177.584 26.5689 177.418 26.5657 177.251C26.5625 177.084 26.5257 176.919 26.4576 176.766C26.3895 176.613 26.2914 176.476 26.1691 176.362V176.362Z" fill="#FFFAE8" />
  <path d="M225.169 176.362L222.715 173.927C222.68 173.892 222.656 173.847 222.647 173.799C222.637 173.75 222.642 173.7 222.66 173.654C222.679 173.609 222.711 173.569 222.752 173.542C222.793 173.514 222.842 173.5 222.891 173.5L229.332 173.5C229.664 173.5 229.982 173.368 230.216 173.133C230.45 172.899 230.582 172.581 230.582 172.25C230.582 171.918 230.45 171.6 230.216 171.366C229.982 171.131 229.664 171 229.332 171L222.89 171C222.84 171 222.792 170.985 222.751 170.957C222.709 170.93 222.677 170.891 222.658 170.845C222.64 170.799 222.635 170.748 222.645 170.7C222.655 170.651 222.679 170.606 222.714 170.572L225.168 168.137C225.285 168.021 225.377 167.884 225.441 167.733C225.504 167.581 225.537 167.419 225.538 167.255C225.539 167.091 225.507 166.928 225.445 166.777C225.383 166.625 225.292 166.487 225.177 166.37C225.061 166.253 224.924 166.161 224.773 166.097C224.621 166.034 224.459 166.001 224.295 166C224.131 165.999 223.968 166.031 223.817 166.093C223.665 166.155 223.527 166.246 223.41 166.362L218.369 171.362C218.252 171.478 218.159 171.616 218.096 171.768C218.033 171.92 218 172.083 218 172.248C218 172.412 218.033 172.575 218.096 172.727C218.159 172.88 218.252 173.018 218.369 173.134V173.134L223.41 178.134C223.525 178.255 223.663 178.352 223.817 178.419C223.97 178.486 224.135 178.522 224.302 178.524C224.47 178.526 224.635 178.494 224.79 178.431C224.945 178.367 225.086 178.273 225.203 178.155C225.321 178.036 225.414 177.895 225.476 177.739C225.538 177.584 225.569 177.418 225.566 177.251C225.562 177.084 225.526 176.919 225.458 176.766C225.389 176.613 225.291 176.476 225.169 176.362V176.362Z" fill="#FFFAE8" />
  <path d="M240 146H241C241.552 146 242 146.448 242 147V199C242 199.552 241.552 200 241 200H240V146Z" fill="url(#paint0_linear_3100_1019)" />
  <path d="M245 152H242V196H245L248.48 190.432C249.473 188.843 250 187.006 250 185.132V162.205C250 160.12 249.349 158.088 248.137 156.392L245 152Z" fill="url(#paint1_linear_3100_1019)" />
  <g filter="url(#filter2_d_3100_1019)">
    <path d="M245 164H242V188H245C248.2 180.32 248.2 171.68 245 164Z" fill="url(#paint2_linear_3100_1019)" />
  </g>
  <g filter="url(#filter3_d_3100_1019)">
    <path d="M245 152H242V164H245C246.889 160.223 246.889 155.777 245 152Z" fill="url(#paint3_linear_3100_1019)" />
  </g>
  <g filter="url(#filter4_d_3100_1019)">
    <path d="M245 188H242V196H245C246.778 193.63 246.778 190.37 245 188Z" fill="#B0B0B0" />
  </g>
  <path d="M10 200L9 200C8.44772 200 8 199.552 8 199L8 147C8 146.448 8.44772 146 9 146L10 146L10 200Z" fill="url(#paint4_linear_3100_1019)" />
  <path d="M5 194L8 194L8 150L5 150L1.52002 155.568C0.526698 157.157 3.06034e-06 158.994 2.89649e-06 160.868L8.92119e-07 183.795C7.0991e-07 185.88 0.651232 187.912 1.86267 189.608L5 194Z" fill="url(#paint5_linear_3100_1019)" />
  <g filter="url(#filter5_d_3100_1019)">
    <path d="M5 182L8 182L8 158L5 158C1.8 165.68 1.8 174.32 5 182Z" fill="url(#paint6_linear_3100_1019)" />
  </g>
  <g filter="url(#filter6_d_3100_1019)">
    <path d="M5 194L8 194L8 182L5 182C3.11146 185.777 3.11146 190.223 5 194Z" fill="url(#paint7_linear_3100_1019)" />
  </g>
  <g filter="url(#filter7_d_3100_1019)">
    <path d="M5 158L8 158L8 150L5 150C3.22222 152.37 3.22222 155.63 5 158Z" fill="#B0B0B0" />
  </g>
  <path d="M54.1543 101H52.3428V94.291H56.8838C57.3721 94.291 57.7855 94.3415 58.124 94.4424C58.4658 94.5433 58.7425 94.6865 58.9541 94.8721C59.1689 95.0576 59.3236 95.2822 59.418 95.5459C59.5156 95.8063 59.5645 96.0977 59.5645 96.4199C59.5645 96.7031 59.5238 96.9505 59.4424 97.1621C59.3643 97.3737 59.2568 97.556 59.1201 97.709C58.9867 97.8587 58.8304 97.9857 58.6514 98.0898C58.4723 98.194 58.2835 98.2803 58.085 98.3486L60.2822 101H58.1631L56.1318 98.5293H54.1543V101ZM57.7334 96.4102C57.7334 96.2799 57.7155 96.1693 57.6797 96.0781C57.6471 95.987 57.5885 95.9137 57.5039 95.8584C57.4193 95.7998 57.3053 95.7575 57.1621 95.7314C57.0221 95.7054 56.8464 95.6924 56.6348 95.6924H54.1543V97.1279H56.6348C56.8464 97.1279 57.0221 97.1149 57.1621 97.0889C57.3053 97.0628 57.4193 97.0221 57.5039 96.9668C57.5885 96.9082 57.6471 96.8333 57.6797 96.7422C57.7155 96.651 57.7334 96.5404 57.7334 96.4102ZM66.9717 99.7305H63.2314L62.6016 101H60.5801L64.0908 94.291H66.1123L69.623 101H67.6016L66.9717 99.7305ZM63.8809 98.4219H66.332L65.1113 95.9512L63.8809 98.4219ZM74.0908 95.751V101H72.2793V95.751H69.4326V94.291H76.9424V95.751H74.0908ZM78.1436 101V94.291H84.9355V95.7217H80.0039V96.8301H84.6816V98.2607H80.0039V99.5693H85.0039V101H78.1436Z" fill="#FFFAE8" />
  <path d="M166.431 97.6406C166.431 98.0703 166.383 98.4528 166.289 98.7881C166.195 99.1201 166.061 99.4098 165.889 99.6572C165.719 99.9046 165.514 100.115 165.273 100.287C165.036 100.46 164.771 100.598 164.478 100.702C164.185 100.806 163.869 100.883 163.53 100.932C163.192 100.977 162.839 101 162.471 101H158.213V94.291H162.461C162.829 94.291 163.182 94.3154 163.521 94.3643C163.859 94.4098 164.175 94.4847 164.468 94.5889C164.764 94.693 165.033 94.8314 165.273 95.0039C165.514 95.1732 165.719 95.3831 165.889 95.6338C166.061 95.8812 166.195 96.1709 166.289 96.5029C166.383 96.835 166.431 97.2142 166.431 97.6406ZM164.604 97.6406C164.604 97.3184 164.562 97.0384 164.478 96.8008C164.396 96.5632 164.263 96.3678 164.077 96.2148C163.895 96.0586 163.656 95.943 163.359 95.8682C163.063 95.79 162.702 95.751 162.275 95.751H160.024V99.54H162.275C162.702 99.54 163.063 99.5026 163.359 99.4277C163.656 99.3496 163.895 99.2324 164.077 99.0762C164.263 98.9167 164.396 98.7181 164.478 98.4805C164.562 98.2428 164.604 97.9629 164.604 97.6406ZM168.086 101V94.291H174.878V95.7217H169.946V96.8301H174.624V98.2607H169.946V99.5693H174.946V101H168.086ZM184.238 96.5811C184.238 96.9163 184.189 97.2256 184.092 97.5088C183.994 97.7887 183.836 98.0312 183.618 98.2363C183.403 98.4382 183.123 98.596 182.778 98.71C182.433 98.8239 182.013 98.8809 181.519 98.8809H178.511V101H176.699V94.291H181.519C182.013 94.291 182.433 94.348 182.778 94.4619C183.123 94.5726 183.403 94.7305 183.618 94.9355C183.836 95.1374 183.994 95.3783 184.092 95.6582C184.189 95.9382 184.238 96.2458 184.238 96.5811ZM182.407 96.6104C182.407 96.4541 182.384 96.3206 182.339 96.21C182.297 96.096 182.225 96.0033 182.124 95.9316C182.023 95.86 181.891 95.8079 181.729 95.7754C181.566 95.7396 181.366 95.7217 181.128 95.7217H178.511V97.4502H181.128C181.366 97.4502 181.566 97.4372 181.729 97.4111C181.891 97.3818 182.023 97.3346 182.124 97.2695C182.225 97.2012 182.297 97.1133 182.339 97.0059C182.384 96.8984 182.407 96.7666 182.407 96.6104ZM189.502 95.751V101H187.69V95.751H184.844V94.291H192.354V95.751H189.502ZM199.976 101V98.2021H195.366V101H193.555V94.291H195.366V96.7324H199.976V94.291H201.787V101H199.976Z" fill="#FFFAE8" />
  <path d="M112.861 73.291L114.575 77.9492L116.431 73.291H118.311L115.615 80H113.604L111.851 75.4883L110.103 80H108.091L105.391 73.291H107.275L109.092 77.8516L110.845 73.291H112.861ZM124.663 78.7305H120.923L120.293 80H118.271L121.782 73.291H123.804L127.314 80H125.293L124.663 78.7305ZM121.572 77.4219H124.023L122.803 74.9512L121.572 77.4219ZM132.622 80H130.513L127.119 73.291H129.141L131.582 78.3398L134.019 73.291H136.04L132.622 80ZM137.144 80V73.291H143.936V74.7217H139.004V75.8301H143.682V77.2607H139.004V78.5693H144.004V80H137.144Z" fill="#FFFAE8" />
  <circle cx="44" cy="86" r="2" fill="#FFFAE8" />
  <circle cx="155" cy="86" r="2" fill="#FFFAE8" />
  <circle cx="94" cy="86" r="2" fill="#FFFAE8" />
  <circle cx="205" cy="86" r="2" fill="#FFFAE8" />
  <circle cx="69" cy="14" r="2" fill="#FFFAE8" />
  <circle cx="180" cy="14" r="2" fill="#FFFAE8" />
  <path d="M64.2617 217.07H53.0703V240H47.9922V217.07H36.7812V211.992H64.2617V217.07ZM83.5781 223.965H72.1523C71.4622 223.965 70.9414 224.141 70.5898 224.492C70.2383 224.831 70.0625 225.332 70.0625 225.996V240H64.9844V225.996C64.9844 225.124 65.0951 224.342 65.3164 223.652C65.5378 222.962 65.8307 222.357 66.1953 221.836C66.5729 221.302 67.0026 220.853 67.4844 220.488C67.9661 220.111 68.4674 219.805 68.9883 219.57C69.5221 219.336 70.056 219.167 70.5898 219.062C71.1367 218.945 71.6445 218.887 72.1133 218.887H83.5781V223.965ZM109.574 225.879C109.574 226.582 109.451 227.344 109.203 228.164C108.956 228.971 108.552 229.727 107.992 230.43C107.445 231.12 106.723 231.699 105.824 232.168C104.939 232.637 103.858 232.871 102.582 232.871H93.4219V228.047H102.582C103.272 228.047 103.806 227.839 104.184 227.422C104.561 226.992 104.75 226.465 104.75 225.84C104.75 225.176 104.535 224.655 104.105 224.277C103.689 223.9 103.181 223.711 102.582 223.711H93.4219C92.7318 223.711 92.1979 223.926 91.8203 224.355C91.4427 224.772 91.2539 225.293 91.2539 225.918V233.008C91.2539 233.685 91.4622 234.212 91.8789 234.59C92.3086 234.967 92.8359 235.156 93.4609 235.156H102.582V240H93.4219C92.7188 240 91.957 239.876 91.1367 239.629C90.3294 239.382 89.5742 238.984 88.8711 238.438C88.181 237.878 87.6016 237.155 87.1328 236.27C86.6641 235.371 86.4297 234.284 86.4297 233.008V225.879C86.4297 225.176 86.5534 224.421 86.8008 223.613C87.0482 222.793 87.4453 222.038 87.9922 221.348C88.5521 220.645 89.2747 220.059 90.1602 219.59C91.0586 219.121 92.1458 218.887 93.4219 218.887H102.582C103.285 218.887 104.04 219.01 104.848 219.258C105.668 219.505 106.423 219.909 107.113 220.469C107.816 221.016 108.402 221.738 108.871 222.637C109.34 223.522 109.574 224.603 109.574 225.879ZM131.84 240H126.762V225.996C126.762 225.332 126.586 224.831 126.234 224.492C125.883 224.141 125.362 223.965 124.672 223.965H118.07V240H112.992V221.406C112.992 221.055 113.057 220.729 113.188 220.43C113.318 220.117 113.5 219.85 113.734 219.629C113.969 219.395 114.242 219.212 114.555 219.082C114.867 218.952 115.199 218.887 115.551 218.887H124.711C125.414 218.887 126.169 219.01 126.977 219.258C127.784 219.505 128.552 219.902 129.281 220.449V218.887H136.156C136.638 218.887 137.146 218.945 137.68 219.062C138.214 219.167 138.741 219.336 139.262 219.57C139.796 219.805 140.303 220.111 140.785 220.488C141.267 220.853 141.69 221.302 142.055 221.836C142.419 222.357 142.712 222.962 142.934 223.652C143.155 224.342 143.266 225.124 143.266 225.996V240H138.188V225.996C138.188 225.332 138.018 224.831 137.68 224.492C137.354 224.141 136.846 223.965 136.156 223.965H131.586C131.755 224.59 131.84 225.267 131.84 225.996V240ZM170.922 232.871C170.922 233.743 170.811 234.531 170.59 235.234C170.368 235.924 170.076 236.536 169.711 237.07C169.346 237.591 168.923 238.04 168.441 238.418C167.96 238.783 167.452 239.082 166.918 239.316C166.397 239.551 165.863 239.727 165.316 239.844C164.783 239.948 164.275 240 163.793 240H154.633C153.93 240 153.161 239.876 152.328 239.629C151.495 239.382 150.72 238.978 150.004 238.418C149.301 237.845 148.708 237.109 148.227 236.211C147.758 235.299 147.523 234.186 147.523 232.871V225.996C147.523 224.694 147.758 223.594 148.227 222.695C148.708 221.784 149.301 221.048 150.004 220.488C150.72 219.915 151.495 219.505 152.328 219.258C153.161 219.01 153.93 218.887 154.633 218.887H163.793C165.095 218.887 166.202 219.121 167.113 219.59C168.025 220.059 168.76 220.651 169.32 221.367C169.88 222.07 170.284 222.839 170.531 223.672C170.792 224.505 170.922 225.28 170.922 225.996V232.871ZM165.844 226.035C165.844 225.332 165.668 224.811 165.316 224.473C164.965 224.134 164.457 223.965 163.793 223.965H154.672C153.995 223.965 153.48 224.141 153.129 224.492C152.777 224.831 152.602 225.332 152.602 225.996V232.871C152.602 233.535 152.777 234.043 153.129 234.395C153.48 234.746 153.995 234.922 154.672 234.922H163.793C164.483 234.922 164.997 234.746 165.336 234.395C165.674 234.043 165.844 233.535 165.844 232.871V226.035ZM184.535 240H182.27C181.54 240 180.759 239.876 179.926 239.629C179.105 239.382 178.337 238.978 177.621 238.418C176.905 237.845 176.312 237.109 175.844 236.211C175.375 235.299 175.141 234.186 175.141 232.871V209.961H180.219V232.871C180.219 233.496 180.414 233.997 180.805 234.375C181.195 234.74 181.684 234.922 182.27 234.922H184.535V240ZM210.766 232.871C210.766 233.743 210.655 234.531 210.434 235.234C210.212 235.924 209.919 236.536 209.555 237.07C209.19 237.591 208.767 238.04 208.285 238.418C207.803 238.783 207.296 239.082 206.762 239.316C206.241 239.551 205.707 239.727 205.16 239.844C204.626 239.948 204.118 240 203.637 240H194.477C193.773 240 193.005 239.876 192.172 239.629C191.339 239.382 190.564 238.978 189.848 238.418C189.145 237.845 188.552 237.109 188.07 236.211C187.602 235.299 187.367 234.186 187.367 232.871V225.996C187.367 224.694 187.602 223.594 188.07 222.695C188.552 221.784 189.145 221.048 189.848 220.488C190.564 219.915 191.339 219.505 192.172 219.258C193.005 219.01 193.773 218.887 194.477 218.887H203.637C204.939 218.887 206.046 219.121 206.957 219.59C207.868 220.059 208.604 220.651 209.164 221.367C209.724 222.07 210.128 222.839 210.375 223.672C210.635 224.505 210.766 225.28 210.766 225.996V232.871ZM205.688 226.035C205.688 225.332 205.512 224.811 205.16 224.473C204.809 224.134 204.301 223.965 203.637 223.965H194.516C193.839 223.965 193.324 224.141 192.973 224.492C192.621 224.831 192.445 225.332 192.445 225.996V232.871C192.445 233.535 192.621 234.043 192.973 234.395C193.324 234.746 193.839 234.922 194.516 234.922H203.637C204.327 234.922 204.841 234.746 205.18 234.395C205.518 234.043 205.688 233.535 205.688 232.871V226.035Z" fill="#FFFAE8" />
  <path d="M153.172 259H151.141V256.25H144V259H141.969V253.398C141.969 252.581 142.109 251.828 142.391 251.141C142.672 250.453 143.062 249.862 143.562 249.367C144.062 248.872 144.654 248.487 145.336 248.211C146.018 247.935 146.763 247.797 147.57 247.797H152.148C152.289 247.797 152.422 247.823 152.547 247.875C152.672 247.927 152.781 248 152.875 248.094C152.969 248.188 153.042 248.297 153.094 248.422C153.146 248.547 153.172 248.68 153.172 248.82V259ZM144 254.219H151.141V249.828H147.57C147.508 249.828 147.375 249.839 147.172 249.859C146.974 249.875 146.742 249.919 146.477 249.992C146.216 250.065 145.94 250.177 145.648 250.328C145.357 250.479 145.089 250.688 144.844 250.953C144.599 251.219 144.396 251.552 144.234 251.953C144.078 252.349 144 252.831 144 253.398V254.219ZM166.719 254.312C166.719 254.995 166.599 255.622 166.359 256.195C166.125 256.768 165.799 257.263 165.383 257.68C164.966 258.091 164.471 258.414 163.898 258.648C163.326 258.883 162.703 259 162.031 259H156.547C156.401 259 156.266 258.974 156.141 258.922C156.016 258.87 155.906 258.799 155.812 258.711C155.724 258.617 155.654 258.508 155.602 258.383C155.549 258.258 155.523 258.122 155.523 257.977V248.82C155.523 248.68 155.549 248.547 155.602 248.422C155.654 248.297 155.724 248.188 155.812 248.094C155.906 248 156.016 247.927 156.141 247.875C156.266 247.823 156.401 247.797 156.547 247.797H162.031C162.703 247.797 163.326 247.914 163.898 248.148C164.471 248.383 164.966 248.708 165.383 249.125C165.799 249.536 166.125 250.031 166.359 250.609C166.599 251.182 166.719 251.807 166.719 252.484V254.312ZM164.688 252.484C164.688 252.089 164.622 251.727 164.492 251.398C164.367 251.07 164.188 250.792 163.953 250.562C163.719 250.328 163.438 250.148 163.109 250.023C162.786 249.893 162.427 249.828 162.031 249.828H157.555V256.969H162.031C162.427 256.969 162.786 256.906 163.109 256.781C163.438 256.651 163.719 256.471 163.953 256.242C164.188 256.008 164.367 255.729 164.492 255.406C164.622 255.078 164.688 254.714 164.688 254.312V252.484ZM178.742 259H171.414C171.227 259 171.023 258.979 170.805 258.938C170.591 258.891 170.378 258.82 170.164 258.727C169.956 258.633 169.755 258.513 169.562 258.367C169.37 258.216 169.198 258.036 169.047 257.828C168.901 257.615 168.784 257.37 168.695 257.094C168.607 256.812 168.562 256.497 168.562 256.148V250.648C168.562 250.461 168.583 250.26 168.625 250.047C168.672 249.828 168.742 249.615 168.836 249.406C168.93 249.193 169.052 248.99 169.203 248.797C169.354 248.604 169.534 248.435 169.742 248.289C169.956 248.138 170.201 248.018 170.477 247.93C170.753 247.841 171.065 247.797 171.414 247.797H178.742V249.828H171.414C171.148 249.828 170.945 249.898 170.805 250.039C170.664 250.18 170.594 250.388 170.594 250.664V256.148C170.594 256.409 170.664 256.612 170.805 256.758C170.951 256.898 171.154 256.969 171.414 256.969H178.742V259ZM187.484 254.312H180.156V252.484H187.484V254.312ZM199.508 259H189.219V255.242C189.219 255.049 189.24 254.846 189.281 254.633C189.328 254.414 189.398 254.198 189.492 253.984C189.586 253.771 189.706 253.568 189.852 253.375C190.003 253.182 190.182 253.013 190.391 252.867C190.604 252.716 190.849 252.596 191.125 252.508C191.401 252.419 191.714 252.375 192.062 252.375H196.641C196.917 252.375 197.12 252.307 197.25 252.172C197.385 252.031 197.453 251.828 197.453 251.562V250.664C197.453 250.388 197.385 250.18 197.25 250.039C197.115 249.898 196.917 249.828 196.656 249.828H190.133V247.797H196.656C197 247.797 197.31 247.841 197.586 247.93C197.862 248.018 198.104 248.138 198.312 248.289C198.526 248.435 198.708 248.604 198.859 248.797C199.01 248.99 199.133 249.193 199.227 249.406C199.326 249.615 199.396 249.828 199.438 250.047C199.484 250.26 199.508 250.461 199.508 250.648V251.562C199.508 252.089 199.411 252.534 199.219 252.898C199.031 253.258 198.794 253.552 198.508 253.781C198.221 254.005 197.911 254.169 197.578 254.273C197.25 254.372 196.943 254.422 196.656 254.422H192.062C191.896 254.422 191.763 254.445 191.664 254.492C191.565 254.539 191.487 254.602 191.43 254.68C191.378 254.758 191.339 254.846 191.312 254.945C191.286 255.044 191.266 255.143 191.25 255.242V256.969H199.508V259ZM210.852 256.148C210.852 256.674 210.755 257.12 210.562 257.484C210.375 257.844 210.138 258.138 209.852 258.367C209.57 258.591 209.263 258.753 208.93 258.852C208.596 258.951 208.286 259 208 259H201.484V256.969H208C208.276 256.969 208.479 256.898 208.609 256.758C208.745 256.617 208.812 256.414 208.812 256.148V254.422H201.484V252.375H208.812V250.664C208.812 250.107 208.542 249.828 208 249.828H201.484V247.797H208C208.349 247.797 208.661 247.841 208.938 247.93C209.214 248.018 209.456 248.138 209.664 248.289C209.878 248.435 210.06 248.604 210.211 248.797C210.362 248.99 210.484 249.193 210.578 249.406C210.672 249.615 210.74 249.828 210.781 250.047C210.828 250.26 210.852 250.461 210.852 250.648V256.148Z" fill="#FFFAE8" />
  <defs>
    <filter id="filter0_i_3100_1019" x="10" y="0" width="230" height="423" filterUnits="userSpaceOnUse" color-interpolation-filters="sRGB">
      <feFlood flood-opacity="0" result="BackgroundImageFix" />
      <feBlend mode="normal" in="SourceGraphic" in2="BackgroundImageFix" result="shape" />
      <feColorMatrix in="SourceAlpha" type="matrix" values="0 0 0 0 0 0 0 0 0 0 0 0 0 0 0 0 0 0 127 0" result="hardAlpha" />
      <feOffset dy="2" />
      <feComposite in2="hardAlpha" operator="arithmetic" k2="-1" k3="1" />
      <feColorMatrix type="matrix" values="0 0 0 0 1 0 0 0 0 1 0 0 0 0 1 0 0 0 0.25 0" />
      <feBlend mode="normal" in2="shape" result="effect1_innerShadow_3100_1019" />
    </filter>
    <filter id="filter1_i_3100_1019" x="10" y="145" width="230" height="278" filterUnits="userSpaceOnUse" color-interpolation-filters="sRGB">
      <feFlood flood-opacity="0" result="BackgroundImageFix" />
      <feBlend mode="normal" in="SourceGraphic" in2="BackgroundImageFix" result="shape" />
      <feColorMatrix in="SourceAlpha" type="matrix" values="0 0 0 0 0 0 0 0 0 0 0 0 0 0 0 0 0 0 127 0" result="hardAlpha" />
      <feOffset dy="2" />
      <feComposite in2="hardAlpha" operator="arithmetic" k2="-1" k3="1" />
      <feColorMatrix type="matrix" values="0 0 0 0 1 0 0 0 0 1 0 0 0 0 1 0 0 0 0.37 0" />
      <feBlend mode="normal" in2="shape" result="effect1_innerShadow_3100_1019" />
    </filter>
    <filter id="filter2_d_3100_1019" x="242" y="164" width="6.3999" height="24" filterUnits="userSpaceOnUse" color-interpolation-filters="sRGB">
      <feFlood flood-opacity="0" result="BackgroundImageFix" />
      <feColorMatrix in="SourceAlpha" type="matrix" values="0 0 0 0 0 0 0 0 0 0 0 0 0 0 0 0 0 0 127 0" result="hardAlpha" />
      <feOffset dx="1" />
      <feColorMatrix type="matrix" values="0 0 0 0 1 0 0 0 0 1 0 0 0 0 1 0 0 0 0.71 0" />
      <feBlend mode="normal" in2="BackgroundImageFix" result="effect1_dropShadow_3100_1019" />
      <feBlend mode="normal" in="SourceGraphic" in2="effect1_dropShadow_3100_1019" result="shape" />
    </filter>
    <filter id="filter3_d_3100_1019" x="242" y="152" width="5.4165" height="12" filterUnits="userSpaceOnUse" color-interpolation-filters="sRGB">
      <feFlood flood-opacity="0" result="BackgroundImageFix" />
      <feColorMatrix in="SourceAlpha" type="matrix" values="0 0 0 0 0 0 0 0 0 0 0 0 0 0 0 0 0 0 127 0" result="hardAlpha" />
      <feOffset dx="1" />
      <feColorMatrix type="matrix" values="0 0 0 0 1 0 0 0 0 1 0 0 0 0 1 0 0 0 0.71 0" />
      <feBlend mode="normal" in2="BackgroundImageFix" result="effect1_dropShadow_3100_1019" />
      <feBlend mode="normal" in="SourceGraphic" in2="effect1_dropShadow_3100_1019" result="shape" />
    </filter>
    <filter id="filter4_d_3100_1019" x="242" y="188" width="5.33325" height="8" filterUnits="userSpaceOnUse" color-interpolation-filters="sRGB">
      <feFlood flood-opacity="0" result="BackgroundImageFix" />
      <feColorMatrix in="SourceAlpha" type="matrix" values="0 0 0 0 0 0 0 0 0 0 0 0 0 0 0 0 0 0 127 0" result="hardAlpha" />
      <feOffset dx="1" />
      <feColorMatrix type="matrix" values="0 0 0 0 1 0 0 0 0 1 0 0 0 0 1 0 0 0 0.71 0" />
      <feBlend mode="normal" in2="BackgroundImageFix" result="effect1_dropShadow_3100_1019" />
      <feBlend mode="normal" in="SourceGraphic" in2="effect1_dropShadow_3100_1019" result="shape" />
    </filter>
    <filter id="filter5_d_3100_1019" x="2.6001" y="158" width="6.3999" height="24" filterUnits="userSpaceOnUse" color-interpolation-filters="sRGB">
      <feFlood flood-opacity="0" result="BackgroundImageFix" />
      <feColorMatrix in="SourceAlpha" type="matrix" values="0 0 0 0 0 0 0 0 0 0 0 0 0 0 0 0 0 0 127 0" result="hardAlpha" />
      <feOffset dx="1" />
      <feColorMatrix type="matrix" values="0 0 0 0 1 0 0 0 0 1 0 0 0 0 1 0 0 0 0.71 0" />
      <feBlend mode="normal" in2="BackgroundImageFix" result="effect1_dropShadow_3100_1019" />
      <feBlend mode="normal" in="SourceGraphic" in2="effect1_dropShadow_3100_1019" result="shape" />
    </filter>
    <filter id="filter6_d_3100_1019" x="3.5835" y="182" width="5.4165" height="12" filterUnits="userSpaceOnUse" color-interpolation-filters="sRGB">
      <feFlood flood-opacity="0" result="BackgroundImageFix" />
      <feColorMatrix in="SourceAlpha" type="matrix" values="0 0 0 0 0 0 0 0 0 0 0 0 0 0 0 0 0 0 127 0" result="hardAlpha" />
      <feOffset dx="1" />
      <feColorMatrix type="matrix" values="0 0 0 0 1 0 0 0 0 1 0 0 0 0 1 0 0 0 0.71 0" />
      <feBlend mode="normal" in2="BackgroundImageFix" result="effect1_dropShadow_3100_1019" />
      <feBlend mode="normal" in="SourceGraphic" in2="effect1_dropShadow_3100_1019" result="shape" />
    </filter>
    <filter id="filter7_d_3100_1019" x="3.66675" y="150" width="5.33325" height="8" filterUnits="userSpaceOnUse" color-interpolation-filters="sRGB">
      <feFlood flood-opacity="0" result="BackgroundImageFix" />
      <feColorMatrix in="SourceAlpha" type="matrix" values="0 0 0 0 0 0 0 0 0 0 0 0 0 0 0 0 0 0 127 0" result="hardAlpha" />
      <feOffset dx="1" />
      <feColorMatrix type="matrix" values="0 0 0 0 1 0 0 0 0 1 0 0 0 0 1 0 0 0 0.71 0" />
      <feBlend mode="normal" in2="BackgroundImageFix" result="effect1_dropShadow_3100_1019" />
      <feBlend mode="normal" in="SourceGraphic" in2="effect1_dropShadow_3100_1019" result="shape" />
    </filter>
    <linearGradient id="paint0_linear_3100_1019" x1="241" y1="199.5" x2="241" y2="146.5" gradientUnits="userSpaceOnUse">
      <stop stop-color="#878787" />
      <stop offset="0.484275" stop-color="white" />
      <stop offset="0.484375" stop-color="#898989" />
      <stop offset="0.703125" stop-color="white" />
      <stop offset="1" stop-color="#898989" />
    </linearGradient>
    <linearGradient id="paint1_linear_3100_1019" x1="249" y1="152" x2="246" y2="189.5" gradientUnits="userSpaceOnUse">
      <stop stop-color="white" />
      <stop offset="1" stop-color="#868686" />
    </linearGradient>
    <linearGradient id="paint2_linear_3100_1019" x1="246" y1="187.778" x2="246" y2="164.222" gradientUnits="userSpaceOnUse">
      <stop stop-color="#E2E2E2" />
      <stop offset="0.255208" stop-color="white" />
      <stop offset="1" stop-color="#D2D2D2" />
    </linearGradient>
    <linearGradient id="paint3_linear_3100_1019" x1="245" y1="163.889" x2="245" y2="152.111" gradientUnits="userSpaceOnUse">
      <stop stop-color="#E2E2E2" />
      <stop offset="0.255208" stop-color="white" />
      <stop offset="1" stop-color="#D2D2D2" />
    </linearGradient>
    <linearGradient id="paint4_linear_3100_1019" x1="9.00001" y1="146.5" x2="9" y2="199.5" gradientUnits="userSpaceOnUse">
      <stop stop-color="#878787" />
      <stop offset="0.484275" stop-color="white" />
      <stop offset="0.484375" stop-color="#898989" />
      <stop offset="0.703125" stop-color="white" />
      <stop offset="1" stop-color="#898989" />
    </linearGradient>
    <linearGradient id="paint5_linear_3100_1019" x1="1.00002" y1="194" x2="4.00003" y2="156.5" gradientUnits="userSpaceOnUse">
      <stop stop-color="white" />
      <stop offset="1" stop-color="#868686" />
    </linearGradient>
    <linearGradient id="paint6_linear_3100_1019" x1="4.00001" y1="158.222" x2="4" y2="181.778" gradientUnits="userSpaceOnUse">
      <stop stop-color="#E2E2E2" />
      <stop offset="0.255208" stop-color="white" />
      <stop offset="1" stop-color="#D2D2D2" />
    </linearGradient>
    <linearGradient id="paint7_linear_3100_1019" x1="5" y1="182.111" x2="5" y2="193.889" gradientUnits="userSpaceOnUse">
      <stop stop-color="#E2E2E2" />
      <stop offset="0.255208" stop-color="white" />
      <stop offset="1" stop-color="#D2D2D2" />
    </linearGradient>
  </defs>
</svg>