<svg width="48" height="48" viewBox="0 0 48 48" fill="none" xmlns="http://www.w3.org/2000/svg">
  <path d="M26.1538 0.173667C26.342 1.13184 27.0922 1.9271 28.1099 2.12392C29.127 2.32061 30.1191 1.86302 30.6512 1.04489C32.2111 1.50685 33.7138 2.12567 35.1372 2.88673C34.9446 3.84181 35.3308 4.86169 36.1924 5.43412C37.0541 6.00654 38.1439 5.96726 38.9497 5.41951C40.1703 6.41022 41.2957 7.52253 42.3055 8.74293C41.762 9.55341 41.7304 10.6453 42.3106 11.5036C42.891 12.3624 43.9169 12.7402 44.872 12.5373C45.6346 13.9398 46.2643 15.4356 46.7411 17.0116C45.929 17.5506 45.4805 18.5451 45.6851 19.5595C45.8897 20.574 46.6886 21.3169 47.6461 21.4991C47.8128 23.0932 47.8166 24.6734 47.6697 26.2215C46.7115 26.4097 45.9163 27.1599 45.7195 28.1776C45.5228 29.1947 45.9804 30.1867 46.7984 30.7188C46.3365 32.2787 45.7176 33.7815 44.9566 35.2049C44.0015 35.0123 42.9817 35.3985 42.4093 36.2601C41.8368 37.1218 41.8761 38.2116 42.4238 39.0173C41.4331 40.2379 40.3208 41.3634 39.1004 42.3732C38.2899 41.8296 37.198 41.7981 36.3397 42.3782C35.4809 42.9587 35.1031 43.9845 35.3061 44.9397C33.9036 45.7022 32.4077 46.3319 30.8318 46.8087C30.2928 45.9966 29.2982 45.5482 28.2838 45.7528C27.2694 45.9573 26.5264 46.7562 26.3443 47.7137C24.7502 47.8805 23.1699 47.8843 21.6219 47.7373C21.4337 46.7792 20.6835 45.9839 19.6659 45.7871C18.6487 45.5904 17.6567 46.048 17.1246 46.8661C15.5647 46.4041 14.0619 45.7853 12.6385 45.0242C12.8311 44.0691 12.4449 43.0493 11.5833 42.4769C10.7216 41.9044 9.63183 41.9437 8.82605 42.4914C7.60544 41.5008 6.48003 40.3885 5.47022 39.1681C6.01374 38.3576 6.04529 37.2657 5.46517 36.4074C4.88472 35.5486 3.85884 35.1707 2.90368 35.3737C2.14112 33.9712 1.51145 32.4754 1.03463 30.8994C1.84672 30.3604 2.29518 29.3658 2.0906 28.3514C1.88602 27.337 1.08715 26.5941 0.129616 26.4119C-0.0370897 24.8178 -0.04087 23.2375 0.106052 21.6895C1.06422 21.5013 1.85944 20.7512 2.05624 19.7335C2.25295 18.7163 1.79534 17.7243 0.977292 17.1922C1.43925 15.6323 2.05811 14.1295 2.81917 12.7061C3.77425 12.8987 4.79403 12.5125 5.36646 11.6509C5.93891 10.7892 5.89964 9.69948 5.35191 8.89371C6.3426 7.67312 7.45491 6.54768 8.67528 5.53788C9.48576 6.0814 10.5777 6.11296 11.436 5.53281C12.2948 4.95232 12.6726 3.92649 12.4696 2.9713C13.8722 2.20874 15.368 1.5791 16.944 1.10226C17.483 1.91435 18.4775 2.36281 19.4919 2.15823C20.5063 1.95364 21.2493 1.15478 21.4314 0.197247C23.0255 0.0305209 24.6058 0.0267752 26.1538 0.173667Z" fill="#43414F"/>
  <path d="M40.8818 23.9497C40.8818 33.3385 33.2707 40.9497 23.8818 40.9497C14.493 40.9497 6.88184 33.3385 6.88184 23.9497C6.88184 14.5608 14.493 6.94966 23.8818 6.94966C33.2707 6.94966 40.8818 14.5608 40.8818 23.9497Z" fill="#FFFAE8"/>
  <path d="M21.9519 0H25.2461V9.88272H21.9519V0Z" fill="#FFFAE8"/>
</svg>
