<svg width="212" height="18" viewBox="0 0 212 18" fill="none" xmlns="http://www.w3.org/2000/svg">
<path d="M0.901758 11.204C0.703758 13.074 2.92576 16.308 8.16176 16.308C12.4298 16.308 14.3658 14.68 14.3658 11.996C14.3658 9.26798 11.8798 8.47598 8.66776 7.99198C5.45576 7.44198 4.02576 7.19998 4.02576 5.76998C4.02576 4.47198 5.36776 3.96598 7.30376 3.96598C9.34976 3.96598 10.8238 4.69198 10.9118 6.40798H13.7938C13.8158 3.37198 11.5278 1.47998 7.43576 1.47998C3.27776 1.47998 1.05576 3.17398 1.05576 5.70398C1.05576 8.36598 3.69576 9.28998 7.01776 9.83998C9.98776 10.236 11.4838 10.566 11.4838 11.908C11.4838 13.096 10.4058 13.866 8.24976 13.844C5.87376 13.822 4.04776 12.766 3.87176 11.204H0.901758Z" fill="white"/>
<path d="M29.3551 1.78798V9.72998C29.3551 13.052 27.1771 13.756 24.3171 13.756C21.3691 13.756 19.2351 13.052 19.2351 9.72998V1.78798H16.2871V10.038C16.2871 14.768 19.8511 16.308 24.3171 16.308C28.6291 16.308 32.2811 14.768 32.2811 10.038V1.78798H29.3551Z" fill="white"/>
<path d="M49.5921 11.952C49.5921 9.61998 47.7221 9.00398 45.3021 8.82798C47.6121 8.51998 49.0641 7.66198 49.0641 5.50598C49.0641 3.06398 47.0181 1.78798 43.2121 1.78798H35.0061V16H44.0261C47.3261 15.934 49.5921 14.68 49.5921 11.952ZM43.3001 4.22998C44.9501 4.22998 46.0061 4.75798 46.0061 6.05598C46.0061 7.39798 44.9941 8.10198 43.1461 8.10198H37.9541V4.22998H43.3001ZM43.7401 13.536H37.9541V9.77398H43.4541C45.1261 9.77398 46.6001 10.126 46.6001 11.644C46.6001 12.964 45.5881 13.536 43.7401 13.536Z" fill="white"/>
<path d="M65.2841 1.78798H50.2581V4.25198H56.3081V16H59.2341V4.25198H65.2841V1.78798Z" fill="white"/>
<path d="M78.257 9.81798C80.303 9.46598 81.843 8.49798 81.843 6.09998C81.843 3.08598 79.687 1.78798 76.387 1.78798H66.729V16H69.677V10.764H75.045C77.355 10.764 78.609 11.204 78.609 12.832L78.631 16H81.535V12.612C81.535 10.61 80.479 9.99398 78.257 9.81798ZM69.677 8.45398V4.31798H76.387C77.883 4.31798 78.939 4.95598 78.917 6.25398C78.917 7.61798 77.883 8.45398 76.387 8.45398H69.677Z" fill="white"/>
<path d="M96.3448 16H99.5348L92.8028 1.78798H89.6128L82.9248 16H86.0928L87.5668 12.766H94.8708L96.3448 16ZM88.5568 10.588L91.2188 4.73598L93.8808 10.588H88.5568Z" fill="white"/>
<path d="M116.824 10.874H113.92C113.326 12.7 111.632 13.822 108.728 13.822C105.12 13.822 102.7 12.15 102.7 8.93798C102.7 5.72598 105.12 4.03198 108.728 4.03198C111.632 4.03198 113.348 5.17598 113.942 7.00198H116.846C116.472 3.52598 113.524 1.47998 108.728 1.47998C103.382 1.47998 99.7077 4.03198 99.7077 8.93798C99.7077 13.822 103.382 16.308 108.728 16.308C113.524 16.308 116.45 14.328 116.824 10.874Z" fill="white"/>
<path d="M132.361 1.78798H117.335V4.25198H123.385V16H126.311V4.25198H132.361V1.78798Z" fill="white"/>
<path fill-rule="evenodd" clip-rule="evenodd" d="M158.39 15.4096C156.025 16.803 152.475 17.44 147.63 17.44C142.786 17.44 139.236 16.803 136.871 15.4096C135.668 14.7009 134.764 13.7923 134.169 12.6792C133.577 11.5713 133.32 10.3179 133.32 8.95998C133.32 7.6021 133.577 6.34865 134.169 5.24073C134.764 4.12763 135.668 3.21907 136.871 2.51039C139.236 1.11695 142.786 0.47998 147.63 0.47998C152.475 0.47998 156.025 1.11695 158.39 2.51039C159.424 3.11941 160.236 3.87605 160.822 4.78326V0.91998H167.595L180.842 8.72782V0.91998H211.614V7.09998H208.578V10.82H211.658V17H181.574L168.322 9.34992V17H160.822V13.1367C160.236 14.0439 159.424 14.8006 158.39 15.4096ZM160.822 10.3933C160.121 14.3819 156.244 16.44 147.63 16.44C138.038 16.44 134.32 13.888 134.32 8.95998C134.32 4.03198 138.038 1.47998 147.63 1.47998C156.244 1.47998 160.121 3.53802 160.822 7.52665C160.902 7.9796 160.94 8.45743 160.94 8.95998C160.94 9.46253 160.902 9.94036 160.822 10.3933ZM161.822 16H167.322V7.61798L181.842 16H187.342V1.91998H181.842V10.478L167.322 1.91998H161.822V16ZM142.467 10.464C143.628 10.8715 145.379 11.04 147.63 11.04C149.884 11.04 151.573 10.8707 152.671 10.4685C153.207 10.272 153.531 10.0447 153.719 9.82005C153.892 9.61411 154 9.35227 154 8.95998C154 8.60748 153.9 8.37084 153.732 8.17823C153.546 7.96458 153.221 7.74332 152.68 7.55093C151.577 7.1587 149.883 6.98998 147.63 6.98998C145.381 6.98998 143.624 7.15795 142.458 7.55524C141.883 7.75135 141.528 7.97872 141.323 8.20021C141.141 8.39787 141.04 8.62824 141.04 8.95998C141.04 9.33246 141.15 9.58773 141.336 9.7978C141.543 10.0299 141.896 10.2635 142.467 10.464ZM210.658 11.82V16H188.438V1.91998H210.614V6.09998H193.938V7.85998H207.578V10.06H193.938V11.82H210.658ZM140.04 8.95998C140.04 11.38 143.098 12.04 147.63 12.04C152.162 12.04 155 11.38 155 8.95998C155 6.64998 152.162 5.98998 147.63 5.98998C143.098 5.98998 140.04 6.64998 140.04 8.95998Z" fill="white"/>
</svg>
